#N canvas 477 370 691 477 10;
#X msg 75 43 \; pd dsp \$1;
#X obj 56 5 tgl 15 0 empty empty empty 17 7 0 10 #fcfcfc #000000 #000000
1 1;
#X floatatom 36 49 5 0 0 0 - - -, f 5;
#X obj 244 146 readsf~;
#X obj 255 15 loadbang;
#X obj 248 41 openpanel;
#X obj 256 200 dac~;
#X msg 231 85 open 001.wav;
#X msg 180 91 1;
#X obj 340 161 delread~ delayL 1000;
#X obj 57 141 delwrite~ delayL 8000;
#X connect 1 0 0 0;
#X connect 1 0 2 0;
#X connect 3 0 6 0;
#X connect 3 0 10 0;
#X connect 3 0 6 1;
#X connect 4 0 5 0;
#X connect 7 0 3 0;
#X connect 7 0 8 0;
#X connect 8 0 3 0;
#X connect 9 0 6 0;
#X connect 9 0 6 1;
