#N canvas 753 394 450 300 10;
#X obj 237 28 loadbang;
#X obj 223 67 delay 2000;
#X msg 227 110 \; pd dsp 1;
#X obj 89 100 osc~ 440;
#X obj 81 135 dac~;
#X connect 0 0 1 0;
#X connect 1 0 2 0;
#X connect 3 0 4 0;
#X connect 3 0 4 1;
