#N canvas 1079 293 758 493 10;
#X obj 152 106 openpanel;
#X obj 153 68 bng 20 250 50 0 empty empty empty 17 7 0 10 #fcfcfc #000000
#000000;
#X msg 155 141 open \$1;
#X obj 160 171 readsf~;
#X msg 109 152 1;
#X obj 161 215 dac~;
#X msg 47 54 \; pd dsp \$1;
#X obj 28 16 tgl 15 0 empty empty empty 17 7 0 10 #fcfcfc #000000 #000000
1 1;
#X floatatom 8 60 5 0 0 0 - - -, f 5;
#X connect 0 0 2 0;
#X connect 1 0 0 0;
#X connect 2 0 3 0;
#X connect 3 0 5 0;
#X connect 3 0 5 1;
#X connect 4 0 3 0;
#X connect 7 0 6 0;
#X connect 7 0 8 0;
