#N canvas 583 253 450 300 10;
#X obj 247 38 loadbang;
#X obj 233 77 delay 2000;
#X msg 237 120 \; pd dsp 1;
#X obj 112 59 adc~;
#X obj 152 123 snapshot~;
#X obj 151 155 * 1000;
#X obj 51 121 snapshot~;
#X obj 50 153 * 1000;
#X obj 161 97 t b b;
#X obj 163 75 metro 500;
#X obj 139 194 print Left__: \$1;
#X obj 30 192 print right_: \$1;
#X connect 0 0 1 0;
#X connect 0 0 9 0;
#X connect 1 0 2 0;
#X connect 3 0 4 0;
#X connect 3 1 6 0;
#X connect 4 0 5 0;
#X connect 5 0 10 0;
#X connect 6 0 7 0;
#X connect 7 0 11 0;
#X connect 8 0 6 0;
#X connect 8 1 4 0;
#X connect 9 0 8 0;
